<?xml version="1.0" standalone="no"?><svg xmlns="http://www.w3.org/2000/svg" viewBox="0 0 1440 320"><path fill="#a2d9ff" fill-opacity="0.5" d="M0,32L20,53.3C40,75,80,117,120,138.7C160,160,200,160,240,138.7C280,117,320,75,360,80C400,85,440,139,480,176C520,213,560,235,600,224C640,213,680,171,720,181.3C760,192,800,256,840,282.7C880,309,920,299,960,272C1000,245,1040,203,1080,165.3C1120,128,1160,96,1200,90.7C1240,85,1280,107,1320,122.7C1360,139,1400,149,1420,154.7L1440,160L1440,320L1420,320C1400,320,1360,320,1320,320C1280,320,1240,320,1200,320C1160,320,1120,320,1080,320C1040,320,1000,320,960,320C920,320,880,320,840,320C800,320,760,320,720,320C680,320,640,320,600,320C560,320,520,320,480,320C440,320,400,320,360,320C320,320,280,320,240,320C200,320,160,320,120,320C80,320,40,320,20,320L0,320Z"></path></svg>